<?xml version="1.0" standalone="no"?>
<!DOCTYPE svg PUBLIC "-//W3C//DTD SVG 1.1//EN" "http://www.w3.org/Graphics/SVG/1.1/DTD/svg11.dtd" >
<svg xmlns="http://www.w3.org/2000/svg" xmlns:xlink="http://www.w3.org/1999/xlink" version="1.1">
<metadata>
Created by FontForge 20190801 at Thu Apr  9 13:21:16 2020
 By root
(c) 2020 - Variatype Studio
</metadata>
<defs>
<font id="KonexyPersonalUseRegular" horiz-adv-x="796" >
  <font-face 
    font-family="Konexy Personal Use"
    font-weight="400"
    font-stretch="normal"
    units-per-em="1000"
    panose-1="0 0 0 0 0 0 0 0 0 0"
    ascent="800"
    descent="-200"
    x-height="551.812"
    cap-height="658.848"
    bbox="-105 -224.154 1418.33 934.07"
    underline-thickness="0"
    underline-position="0"
    unicode-range="U+000A-F041"
  />
<missing-glyph horiz-adv-x="527" 
d="M50 700h427v-700h-427v700zM78 680l185 -309l186 309h-371zM251 350l-180 300v-601zM264 329l-185 -308h370zM276 350l181 -303v605z" />
    <glyph glyph-name=".notdef" horiz-adv-x="527" 
d="M50 700h427v-700h-427v700zM78 680l185 -309l186 309h-371zM251 350l-180 300v-601zM264 329l-185 -308h370zM276 350l181 -303v605z" />
    <glyph glyph-name=".null" horiz-adv-x="0" 
 />
    <glyph glyph-name=".null" horiz-adv-x="0" 
 />
    <glyph glyph-name="controlLF" unicode="&#xa;" horiz-adv-x="0" 
 />
    <glyph glyph-name="controlCR" unicode="&#xd;" horiz-adv-x="0" 
 />
    <glyph glyph-name="space" unicode=" " horiz-adv-x="402" 
 />
    <glyph glyph-name="comma" unicode="," horiz-adv-x="182" 
d="M40.4336 137.236h122.887l-69.5684 -225.521h-85.752z" />
    <glyph glyph-name="period" unicode="." horiz-adv-x="176" 
d="M23 137.236h129.736v-137.236h-129.736v137.236z" />
    <glyph glyph-name="zero" unicode="0" horiz-adv-x="906" 
d="M224.32 658.848h457.077c41.3174 0 85.1514 -11.7002 120.719 -41.8506c35.5508 -30.167 58.6016 -79.5186 58.6016 -136.12v-302.906c0 -56.6182 -23.0508 -105.97 -58.6016 -136.12c-35.5674 -30.1504 -79.4014 -41.8506 -120.719 -41.8506h-457.077
c-41.3174 -0 -85.1514 11.7002 -120.719 41.8506c-35.5508 30.167 -58.6016 79.5186 -58.6016 136.12v302.906c0 56.6182 23.0508 105.97 58.6016 136.12c35.5674 30.1504 79.4014 41.8506 120.719 41.8506zM240.538 551.812c-19.2676 0 -36.7021 -5.9502 -47.2686 -14.917
c-10.584 -8.9668 -18.501 -20.2168 -18.501 -49.5342v-315.874c0 -29.3174 7.91699 -40.5674 18.501 -49.5342c10.5664 -8.9834 28 -14.917 47.2676 -14.917h424.659c19.25 0 36.6836 5.9502 47.2676 14.917s18.5176 20.2168 18.5176 49.5342v315.891
c0 29.3174 -7.9502 40.5674 -18.5166 49.5342s-28 14.9004 -47.2676 14.9004h-424.659z" />
    <glyph glyph-name="one" unicode="1" horiz-adv-x="310" 
d="M130.119 658.848l0.266602 0.0166016h129.47v-658.848h-129.736v535.062l-107.119 -61.8516v123.636l107.119 61.8516v0.133789z" />
    <glyph glyph-name="two" unicode="2" horiz-adv-x="892" 
d="M222.537 658.848l452.394 -0.0664062c41.3008 0 85.1514 -11.7002 120.702 -41.8506s58.6016 -73.0176 58.6016 -129.619v-25.2676c-1.2334 -54.6016 -23.9844 -102.053 -58.5352 -131.354c-35.5674 -30.1504 -79.585 -37.8838 -120.719 -41.8506l-436.427 -42.168
c-19.1836 -1.86719 -36.7002 -5.9502 -47.2676 -14.917c-9.0166 -7.63379 -16.1172 -16.9844 -18.001 -37.7012c0 -3.56641 0.0498047 -41.417 0.516602 -87.0518h668.981v-107.036h-798.518l-1.2666 175.787c0 56.6182 23.0508 105.97 58.6016 136.12
c35.5674 30.1504 79.585 37.8838 120.702 41.8506l436.443 42.168c19.167 1.86719 36.6836 5.9502 47.2676 14.917c10.5664 8.9668 18.5 20.2168 18.5 49.5342v33.501c0 29.3174 -7.93359 34.084 -18.5 43.0508s-28 14.9004 -47.2666 14.9004h-420.06
c-19.25 0 -36.6836 -5.93359 -47.2676 -14.9004c-10.5664 -8.9668 -18.5 -20.2168 -18.5 -49.5342v-51.8008h-128.569l-1.13379 45.3174c0 56.6182 23.0508 105.97 58.6182 136.12c35.5508 30.1504 79.3848 41.8506 120.702 41.8506z" />
    <glyph glyph-name="three" unicode="3" horiz-adv-x="882" 
d="M199.204 658.848l458.661 0.000976562c41.3174 0 85.1514 -11.7002 120.702 -41.8506c35.5508 -30.167 58.6016 -79.5186 58.6016 -136.12v-29.167c0 -41.1846 -12.2168 -78.5352 -32.5508 -107.436c34.834 -30.251 32.1836 -79.0684 32.1836 -135.003l0.616211 -31.3008
c0 -56.6182 -23.0508 -105.97 -58.6016 -136.12s-79.3848 -41.8506 -120.702 -41.8506h-458.91c-41.3174 0 -75.4346 11.7002 -110.985 41.8506c-32.9336 27.917 -55.1006 72.3018 -58.2178 123.67h129.503c1 -24.9336 8.5498 -35.25 18.3662 -43.584
c10.584 -8.9834 28.001 -14.917 47.2852 -14.917h416.726c19.2676 0 36.7012 5.9502 47.2676 14.917c10.584 8.9668 18.5176 20.2168 18.5176 49.5342l-0.616211 41.0342c0 29.3174 -7.9502 40.5674 -18.5166 49.5342c-10.5664 8.9834 -28 14.917 -47.2676 14.917h-374.958
v107.069h375.342c19.25 0 36.7002 5.9502 47.2666 14.917s18.5 20.2168 18.5 49.5342v38.9004c0 29.3174 -7.93359 40.5674 -18.5 49.5342s-28 14.9004 -47.2676 14.9004h-416.492c-19.2666 0 -36.6836 -5.93359 -47.2676 -14.9004
c-9.83398 -8.33398 -17.3838 -18.668 -18.3838 -43.585h-129.486c3.09961 51.3682 25.2832 95.7529 58.2168 123.67c35.5508 30.1504 69.6514 41.8506 110.969 41.8506z" />
    <glyph glyph-name="four" unicode="4" horiz-adv-x="854" 
d="M587.646 658.848l162.82 0.000976562v-444.743h75.168v-107.069h-75.168v-107.036h-129.736v107.036h-601.729v106.719zM620.729 547.146l-433.676 -333.041h433.676v333.041z" />
    <glyph glyph-name="five" unicode="5" horiz-adv-x="898" 
d="M47.2666 658.848l789.016 -0.0527344v-107.036h-659.248l-0.466797 -138.586c34.2012 25.9844 75.0352 36.251 113.669 36.251h387.542c41.3008 0 85.1514 -11.7002 120.702 -41.8506s58.6016 -73.0176 58.6016 -129.619v-106.519
c0 -56.6016 -23.0508 -99.4688 -58.6016 -129.619s-79.4014 -41.8506 -120.702 -41.8506h-452.477c-41.3008 0 -85.1514 11.7002 -120.702 41.8506c-35.5508 30.167 -58.6016 79.5186 -58.6016 136.12l1.13379 45.3174h128.569v-51.8008
c0 -29.3174 7.93359 -40.5674 18.5176 -49.5342c10.5664 -8.9834 28 -14.917 47.2676 -14.917h420.043c19.2676 0 36.7012 5.9502 47.2676 14.917c10.584 8.9668 18.5176 13.7334 18.5176 43.0508v119.503c0 29.3174 -7.93359 34.084 -18.5176 43.0508
c-10.5664 8.9834 -27.9834 14.917 -47.2676 14.917h-419.976c-19.25 0 -36.7002 -5.9502 -47.2676 -14.917c-7.2832 -6.16699 -18.9336 -24.6006 -18.9336 -24.6006l-129.353 1.5z" />
    <glyph glyph-name="six" unicode="6" horiz-adv-x="890" 
d="M224.07 658.481l439.492 -0.0175781c80.4521 0 179.071 -53.6846 179.071 -165.153h-129.503c0 24.6504 -11.167 58.1182 -65.7852 58.1182h-407.075c-54.6016 0 -65.7686 -33.4512 -65.7686 -58.1182v-115.219c33.9346 24.8506 76.3691 37.0508 114.72 37.0508h380.842
c80.4521 0 179.071 -53.6846 179.071 -165.153v-84.8184c-0.116211 -111.469 -98.6182 -165.153 -179.07 -165.153h-445.993c-80.4521 0 -179.071 53.6846 -179.071 165.153v328.157c0.116211 111.469 98.6182 165.153 179.07 165.153zM653.846 308.106h-413.093
c-54.6016 0 -65.7686 -33.4512 -65.7686 -58.1182h-0.466797v-84.8184c0 -24.6504 11.167 -58.1182 65.7686 -58.1182h413.56c54.6182 0 65.7852 33.4512 65.7852 58.1182v84.8184c0 24.6504 -11.167 58.1182 -65.7852 58.1182z" />
    <glyph glyph-name="seven" unicode="7" horiz-adv-x="826" 
d="M6 658.848l807.217 -0.000976562v-98.2021l-465.477 -560.679h-168.62l458.11 551.812h-631.23v107.069z" />
    <glyph glyph-name="eight" unicode="8" horiz-adv-x="886" 
d="M228.054 658.848h429.662c41.3008 0 85.1514 -11.7002 120.702 -41.8506c35.5508 -30.167 58.6016 -79.5186 58.6016 -136.12v-25.917c0 -41.1846 -5.7168 -85.0186 -26.0508 -113.919c34.834 -30.251 32.1836 -72.585 32.1836 -128.52l0.616211 -34.5508
c0 -56.6182 -23.0508 -105.97 -58.6016 -136.12s-79.3848 -41.8506 -120.702 -41.8506h-443.16c-41.3008 -0 -85.1514 11.7002 -120.702 41.8506c-35.5508 30.167 -58.6016 79.5186 -58.6016 136.12l0.616211 34.5508c0 55.918 -2.63379 98.2686 32.1836 128.52
c-20.334 28.9004 -26.0508 72.7344 -26.0508 113.919v25.917c0 56.6182 23.0342 105.97 58.6016 136.12c35.5508 30.1504 79.3848 41.8506 120.702 41.8506zM244.273 551.812c-19.2676 0 -36.7012 -5.9502 -47.2852 -14.9004
c-10.5498 -8.9668 -18.5 -20.2168 -18.5 -49.5342v-35.6504c0 -29.3174 7.9502 -40.5674 18.5 -49.5342c10.584 -8.9834 28.0176 -14.917 47.2842 -14.917h397.226c19.2676 0 36.7012 5.9502 47.2852 14.917c10.5664 8.9668 18.5 20.2168 18.5 49.5342v35.6504
c0 29.3174 -7.93359 40.5674 -18.5 49.5342c-10.584 8.9668 -28.0176 14.9004 -47.2842 14.9004h-397.226zM647.615 280.205h-409.46c-19.3008 0 -36.7178 -5.9502 -47.2842 -14.917c-10.584 -8.9668 -18.5176 -20.2168 -18.5176 -49.5342l-0.616211 -44.2842
c0 -29.3174 7.9502 -40.5674 18.5166 -49.5342c10.5664 -8.9834 28 -14.917 47.2676 -14.917h410.709c19.2676 0 36.7012 5.9502 47.2676 14.917c10.584 8.9668 18.5176 20.2168 18.5176 49.5342l-0.616211 44.2842c0 29.3174 -7.9502 40.5674 -18.5166 49.5342
c-10.5664 8.9834 -28 14.917 -47.2676 14.917z" />
    <glyph glyph-name="nine" unicode="9" horiz-adv-x="890" 
d="M665.08 0l-439.509 0.0175781c-80.4521 0 -179.071 53.6846 -179.071 165.153h129.503c0 -24.6504 11.167 -58.1182 65.7852 -58.1182h407.075c54.6182 0 65.7852 33.4512 65.7852 58.1182v115.219c-33.9512 -24.8506 -76.3857 -37.0508 -114.72 -37.0508h-380.858
c-80.4521 0 -179.071 53.6846 -179.071 165.153v84.8184c0.116211 111.469 98.6348 165.153 179.07 165.153h446.01c80.4355 0 179.055 -53.6846 179.055 -165.153v-328.157c-0.116211 -111.469 -98.6016 -165.153 -179.054 -165.153zM235.288 350.375h413.109
c54.6016 0 65.7686 33.4512 65.7686 58.1182h0.466797v84.8184c0 24.6504 -11.167 58.1182 -65.7852 58.1182h-413.56c-54.6016 0 -65.7852 -33.4512 -65.7852 -58.1182v-84.8184c0 -24.6504 11.167 -58.1182 65.7852 -58.1182z" />
    <glyph glyph-name="question" unicode="?" horiz-adv-x="784" 
d="M201.07 658.481h380.126c80.4521 0 179.071 -53.6846 179.071 -165.153c-0.116211 -111.469 -105.402 -132.819 -179.07 -165.153l-73.9014 -32.4336c-50.0176 -21.9502 -88.8018 -68.9512 -88.8018 -93.6182h-129.503c0.116211 111.469 128.419 168.32 202.087 200.654
l73.8848 32.4336c50.0176 21.9336 65.7842 33.4668 65.7842 58.1172s-11.167 58.1182 -65.7852 58.1182h-347.907c-54.6182 0 -65.7852 -33.4512 -65.7852 -58.1182h0.466797v-57.7676h-129.736v57.7676c0.116211 111.469 98.6182 165.153 179.07 165.153zM289.073 137.236
h129.736v-137.236h-129.736v137.236z" />
    <glyph glyph-name="A" unicode="A" horiz-adv-x="1041" 
d="M466.11 658.848h108.103l471.127 -658.848h-159.504l-108.985 152.42h-513.361l-108.985 -152.42h-159.504zM520.162 511.378l-180.12 -251.905h360.258z" />
    <glyph glyph-name="A" unicode="&#xc5;" horiz-adv-x="1041" 
d="M466.11 658.848h108.103l471.127 -658.848h-159.504l-108.985 152.42h-513.361l-108.985 -152.42h-159.504zM520.162 511.378l-180.12 -251.905h360.258z" />
    <glyph glyph-name="A" unicode="&#xc4;" horiz-adv-x="1041" 
d="M466.11 658.848h108.103l471.127 -658.848h-159.504l-108.985 152.42h-513.361l-108.985 -152.42h-159.504zM520.162 511.378l-180.12 -251.905h360.258z" />
    <glyph glyph-name="A" unicode="&#xc3;" horiz-adv-x="1041" 
d="M466.11 658.848h108.103l471.127 -658.848h-159.504l-108.985 152.42h-513.361l-108.985 -152.42h-159.504zM520.162 511.378l-180.12 -251.905h360.258z" />
    <glyph glyph-name="A" unicode="&#xc2;" horiz-adv-x="1041" 
d="M466.11 658.848h108.103l471.127 -658.848h-159.504l-108.985 152.42h-513.361l-108.985 -152.42h-159.504zM520.162 511.378l-180.12 -251.905h360.258z" />
    <glyph glyph-name="A" unicode="&#xc1;" horiz-adv-x="1041" 
d="M466.11 658.848h108.103l471.127 -658.848h-159.504l-108.985 152.42h-513.361l-108.985 -152.42h-159.504zM520.162 511.378l-180.12 -251.905h360.258z" />
    <glyph glyph-name="A" unicode="&#xc0;" horiz-adv-x="1041" 
d="M466.11 658.848h108.103l471.127 -658.848h-159.504l-108.985 152.42h-513.361l-108.985 -152.42h-159.504zM520.162 511.378l-180.12 -251.905h360.258z" />
    <glyph glyph-name="B" unicode="B" horiz-adv-x="958" 
d="M50 658.848h674.165c41.3174 0 85.1514 -11.7002 120.702 -41.8506c35.5508 -30.167 58.6182 -79.5186 58.6182 -136.12v-29.167c0 -41.1846 -12.2168 -78.5352 -32.5674 -107.436c34.834 -30.251 57.3174 -79.0684 57.3174 -135.003l0.616211 -31.3008
c0 -56.6182 -23.0508 -105.97 -58.6016 -136.12c-35.5674 -30.1504 -79.4014 -41.8506 -120.702 -41.8506h-698.932zM179.736 551.812l0.000976562 -167.77h528.179c19.3008 0 36.7012 5.9502 47.2852 14.917c10.5664 8.9668 18.5166 20.2168 18.5166 49.5342v38.8838
c0 29.3174 -7.9502 40.5674 -18.5176 49.5342c-10.584 8.9668 -28.001 14.9004 -47.2852 14.9004h-528.179zM179.737 276.956l-0.0361328 -169.937h553.596c19.2842 0 36.7012 5.9502 47.2852 14.917s18.5176 20.2168 18.5176 49.5342l-0.616211 41.0342
c0 29.3174 -7.91699 40.5674 -18.501 49.5342c-10.5664 8.9834 -28 14.917 -47.2666 14.917h-552.979z" />
    <glyph glyph-name="C" unicode="C" horiz-adv-x="994" 
d="M219.337 658.848l565.413 0.0175781c41.3008 0 85.1348 -11.7002 120.686 -41.8506c35.5674 -30.167 58.6182 -79.5186 58.6182 -136.12l-1.13379 -45.3174h-128.569v51.8008c0 29.3174 -7.9502 40.5674 -18.5176 49.5342
c-10.584 8.9668 -28.001 14.9004 -47.2676 14.9004h-532.979c-19.2842 0 -36.7012 -5.9502 -47.2852 -14.917s-18.5176 -20.2168 -18.5176 -49.5342v-315.874c0 -29.3174 7.9502 -40.5674 18.5166 -49.5342c10.584 -8.9834 28.0176 -14.917 47.2852 -14.917h532.979
c19.2666 0 36.6836 5.9502 47.2676 14.917s18.5176 20.2168 18.5176 49.5342v51.8008h128.569l1.13379 -45.3174c0 -56.6182 -23.0508 -105.97 -58.6182 -136.12c-35.5508 -30.1504 -79.3848 -41.8506 -120.686 -41.8506h-565.412
c-41.334 -0 -85.168 11.7002 -120.719 41.8506c-35.5508 30.167 -58.6182 79.5186 -58.6182 136.12v302.906c0 56.6182 23.0674 105.97 58.6182 136.12s79.3848 41.8506 120.719 41.8506z" />
    <glyph glyph-name="C" unicode="&#xc7;" horiz-adv-x="994" 
d="M219.337 658.848l565.413 0.0175781c41.3008 0 85.1348 -11.7002 120.686 -41.8506c35.5674 -30.167 58.6182 -79.5186 58.6182 -136.12l-1.13379 -45.3174h-128.569v51.8008c0 29.3174 -7.9502 40.5674 -18.5176 49.5342
c-10.584 8.9668 -28.001 14.9004 -47.2676 14.9004h-532.979c-19.2842 0 -36.7012 -5.9502 -47.2852 -14.917s-18.5176 -20.2168 -18.5176 -49.5342v-315.874c0 -29.3174 7.9502 -40.5674 18.5166 -49.5342c10.584 -8.9834 28.0176 -14.917 47.2852 -14.917h532.979
c19.2666 0 36.6836 5.9502 47.2676 14.917s18.5176 20.2168 18.5176 49.5342v51.8008h128.569l1.13379 -45.3174c0 -56.6182 -23.0508 -105.97 -58.6182 -136.12c-35.5508 -30.1504 -79.3848 -41.8506 -120.686 -41.8506h-565.412
c-41.334 -0 -85.168 11.7002 -120.719 41.8506c-35.5508 30.167 -58.6182 79.5186 -58.6182 136.12v302.906c0 56.6182 23.0674 105.97 58.6182 136.12s79.3848 41.8506 120.719 41.8506z" />
    <glyph glyph-name="D" unicode="D" horiz-adv-x="1013" 
d="M50 658.848h743.6c41.3008 0 85.1348 -11.7002 120.702 -41.8506c35.5508 -30.167 58.6016 -79.5186 58.6016 -136.12v-302.906c0 -56.6182 -23.0508 -105.97 -58.6016 -136.12c-35.5674 -30.1504 -79.4014 -41.8506 -120.702 -41.8506h-743.6v658.848zM179.086 551.812
l-0.00195312 -444.776h598.28c19.2676 0 36.7012 5.9502 47.2852 14.917s18.501 20.2168 18.501 49.5342v315.891c0 29.3174 -7.93359 40.5674 -18.5 49.5342c-10.584 8.9668 -28.0176 14.9004 -47.2842 14.9004h-598.28z" />
    <glyph glyph-name="E" unicode="E" horiz-adv-x="913" 
d="M50 658.848l835.918 0.00195312v-107.036h-706.799v-167.787h663.848v-107.069h-663.848v-169.921h706.799v-107.036h-835.918v658.848z" />
    <glyph glyph-name="E" unicode="&#xc8;" horiz-adv-x="913" 
d="M50 658.848l835.918 0.00195312v-107.036h-706.799v-167.787h663.848v-107.069h-663.848v-169.921h706.799v-107.036h-835.918v658.848z" />
    <glyph glyph-name="F" unicode="F" horiz-adv-x="898" 
d="M50 658.848l835.935 0.000976562v-107.036h-706.799v-167.787h663.864v-107.069h-663.864v-276.956h-129.136v658.848z" />
    <glyph glyph-name="G" unicode="G" horiz-adv-x="1003" 
d="M219.304 658.848l565.425 0.000976562c41.3174 0 85.1514 -11.7002 120.702 -41.8506c35.5674 -30.167 58.6016 -79.5186 58.6016 -136.12l-1.13379 -45.3174h-128.586v51.8008c0 29.3174 -7.93359 40.5674 -18.5 49.5342
c-10.584 8.9668 -28.0176 14.9004 -47.2842 14.9004h-532.979c-19.25 0 -36.7002 -5.93359 -47.2666 -14.9004c-10.584 -8.9668 -18.501 -20.2168 -18.501 -49.5342v-315.874c0 -29.3174 7.91699 -40.5674 18.501 -49.5342c10.5664 -8.9834 28 -14.917 47.2676 -14.917
h532.979c19.2676 0 36.7012 5.9502 47.2852 14.917c10.5674 8.9668 18.501 20.2168 18.501 49.5342v76.2842h-334.44v107.069h463.027l1.13379 -176.87c0 -56.6182 -23.0508 -105.97 -58.6182 -136.12c-35.5508 -30.1504 -79.3848 -41.8506 -120.686 -41.8506h-565.429
c-41.3008 -0 -85.1514 11.7002 -120.702 41.8506c-35.5508 30.167 -58.6016 79.5186 -58.6016 136.12v302.906c0 56.6182 23.0508 105.97 58.6016 136.12s79.4014 41.8506 120.702 41.8506z" />
    <glyph glyph-name="H" unicode="H" horiz-adv-x="1022" 
d="M50 658.848l129.753 0.000976562v-274.84h662.314v274.822h129.736v-658.848h-129.736v276.973h-662.314v-276.956h-129.753v658.848z" />
    <glyph glyph-name="I" unicode="I" horiz-adv-x="230" 
d="M50 658.848h129.736v-658.848h-129.736v658.848z" />
    <glyph glyph-name="I" unicode="&#xcf;" horiz-adv-x="230" 
d="M50 658.848h129.736v-658.848h-129.736v658.848z" />
    <glyph glyph-name="I" unicode="&#xce;" horiz-adv-x="230" 
d="M50 658.848h129.736v-658.848h-129.736v658.848z" />
    <glyph glyph-name="I" unicode="&#xcd;" horiz-adv-x="230" 
d="M50 658.848h129.736v-658.848h-129.736v658.848z" />
    <glyph glyph-name="I" unicode="&#xcc;" horiz-adv-x="230" 
d="M50 658.848h129.736v-658.848h-129.736v658.848z" />
    <glyph glyph-name="J" unicode="J" horiz-adv-x="826" 
d="M8 223.288h129.736v-51.8008c0 -29.3174 7.93359 -40.5674 18.5 -49.5342c10.584 -8.9834 28.0176 -14.917 47.2842 -14.917h381.559c19.2676 0 36.7178 5.9502 47.2842 14.917s18.5 20.2168 18.5 49.5342v487.36h128.586l1.13379 -480.877
c0 -56.6182 -23.0342 -105.97 -58.6182 -136.12c-35.5342 -30.1504 -79.3682 -41.8506 -120.702 -41.8506h-413.976c-41.3008 -0 -85.1348 11.7002 -120.702 41.8506c-35.5508 30.167 -58.585 79.5186 -58.585 136.12v45.3174z" />
    <glyph glyph-name="K" unicode="K" horiz-adv-x="962" 
d="M50 658.848h129.72v-279.59h141.986l438.143 279.59h209.154l-520.661 -333.124l508.795 -325.724h-212.371l-423.043 272.189h-141.986v-272.189h-129.736v658.848z" />
    <glyph glyph-name="L" unicode="L" horiz-adv-x="872" 
d="M50 658.848l129.136 0.000976562v-551.812h642.598v-107.036h-771.733v658.848z" />
    <glyph glyph-name="M" unicode="M" horiz-adv-x="1091" 
d="M50 658.848h119.401l376.025 -521.111l375.392 521.111h120.003v-658.848h-129.753v435.793l-311.606 -435.793h-108.103l-311.623 435.793v-435.793h-129.736v658.848z" />
    <glyph glyph-name="N" unicode="N" horiz-adv-x="968" 
d="M50 658.848h113.853l624.347 -482.61v482.61h129.736v-658.864h-113.869l-624.33 482.61v-482.594h-129.736v658.848z" />
    <glyph glyph-name="O" unicode="O" horiz-adv-x="1005" 
d="M219.304 658.848h565.429c41.3008 0 85.1514 -11.7002 120.702 -41.8506c35.5508 -30.167 58.6016 -79.5186 58.6016 -136.12v-302.906c0 -56.6182 -23.0508 -105.97 -58.6016 -136.12s-79.4014 -41.8506 -120.702 -41.8506h-565.429
c-41.3008 -0 -85.1348 11.7002 -120.702 41.8506c-35.5508 30.167 -58.6016 79.5186 -58.6016 136.12v302.906c0 56.6182 23.0508 105.97 58.6016 136.12c35.5674 30.1504 79.4014 41.8506 120.702 41.8506zM235.521 551.812c-19.2676 0 -36.7021 -5.9502 -47.2686 -14.917
c-10.584 -8.9668 -18.5176 -20.2168 -18.5176 -49.5342v-315.874c0 -29.3174 7.93359 -40.5674 18.5176 -49.5342c10.5664 -8.9834 28 -14.917 47.2676 -14.917h532.979c19.2676 0 36.7012 5.9502 47.2676 14.917c10.584 8.9668 18.5176 20.2168 18.5176 49.5342v315.891
c0 29.3174 -7.93359 40.5674 -18.5176 49.5342c-10.5664 8.9668 -28 14.9004 -47.2666 14.9004h-532.979z" />
    <glyph glyph-name="O" unicode="&#xd8;" horiz-adv-x="1005" 
d="M219.304 658.848h565.429c41.3008 0 85.1514 -11.7002 120.702 -41.8506c35.5508 -30.167 58.6016 -79.5186 58.6016 -136.12v-302.906c0 -56.6182 -23.0508 -105.97 -58.6016 -136.12s-79.4014 -41.8506 -120.702 -41.8506h-565.429
c-41.3008 -0 -85.1348 11.7002 -120.702 41.8506c-35.5508 30.167 -58.6016 79.5186 -58.6016 136.12v302.906c0 56.6182 23.0508 105.97 58.6016 136.12c35.5674 30.1504 79.4014 41.8506 120.702 41.8506zM235.521 551.812c-19.2676 0 -36.7021 -5.9502 -47.2686 -14.917
c-10.584 -8.9668 -18.5176 -20.2168 -18.5176 -49.5342v-315.874c0 -29.3174 7.93359 -40.5674 18.5176 -49.5342c10.5664 -8.9834 28 -14.917 47.2676 -14.917h532.979c19.2676 0 36.7012 5.9502 47.2676 14.917c10.584 8.9668 18.5176 20.2168 18.5176 49.5342v315.891
c0 29.3174 -7.93359 40.5674 -18.5176 49.5342c-10.5664 8.9668 -28 14.9004 -47.2666 14.9004h-532.979z" />
    <glyph glyph-name="O" unicode="&#xd6;" horiz-adv-x="1005" 
d="M219.304 658.848h565.429c41.3008 0 85.1514 -11.7002 120.702 -41.8506c35.5508 -30.167 58.6016 -79.5186 58.6016 -136.12v-302.906c0 -56.6182 -23.0508 -105.97 -58.6016 -136.12s-79.4014 -41.8506 -120.702 -41.8506h-565.429
c-41.3008 -0 -85.1348 11.7002 -120.702 41.8506c-35.5508 30.167 -58.6016 79.5186 -58.6016 136.12v302.906c0 56.6182 23.0508 105.97 58.6016 136.12c35.5674 30.1504 79.4014 41.8506 120.702 41.8506zM235.521 551.812c-19.2676 0 -36.7021 -5.9502 -47.2686 -14.917
c-10.584 -8.9668 -18.5176 -20.2168 -18.5176 -49.5342v-315.874c0 -29.3174 7.93359 -40.5674 18.5176 -49.5342c10.5664 -8.9834 28 -14.917 47.2676 -14.917h532.979c19.2676 0 36.7012 5.9502 47.2676 14.917c10.584 8.9668 18.5176 20.2168 18.5176 49.5342v315.891
c0 29.3174 -7.93359 40.5674 -18.5176 49.5342c-10.5664 8.9668 -28 14.9004 -47.2666 14.9004h-532.979z" />
    <glyph glyph-name="O" unicode="&#xd5;" horiz-adv-x="1005" 
d="M219.304 658.848h565.429c41.3008 0 85.1514 -11.7002 120.702 -41.8506c35.5508 -30.167 58.6016 -79.5186 58.6016 -136.12v-302.906c0 -56.6182 -23.0508 -105.97 -58.6016 -136.12s-79.4014 -41.8506 -120.702 -41.8506h-565.429
c-41.3008 -0 -85.1348 11.7002 -120.702 41.8506c-35.5508 30.167 -58.6016 79.5186 -58.6016 136.12v302.906c0 56.6182 23.0508 105.97 58.6016 136.12c35.5674 30.1504 79.4014 41.8506 120.702 41.8506zM235.521 551.812c-19.2676 0 -36.7021 -5.9502 -47.2686 -14.917
c-10.584 -8.9668 -18.5176 -20.2168 -18.5176 -49.5342v-315.874c0 -29.3174 7.93359 -40.5674 18.5176 -49.5342c10.5664 -8.9834 28 -14.917 47.2676 -14.917h532.979c19.2676 0 36.7012 5.9502 47.2676 14.917c10.584 8.9668 18.5176 20.2168 18.5176 49.5342v315.891
c0 29.3174 -7.93359 40.5674 -18.5176 49.5342c-10.5664 8.9668 -28 14.9004 -47.2666 14.9004h-532.979z" />
    <glyph glyph-name="O" unicode="&#xd4;" horiz-adv-x="1005" 
d="M219.304 658.848h565.429c41.3008 0 85.1514 -11.7002 120.702 -41.8506c35.5508 -30.167 58.6016 -79.5186 58.6016 -136.12v-302.906c0 -56.6182 -23.0508 -105.97 -58.6016 -136.12s-79.4014 -41.8506 -120.702 -41.8506h-565.429
c-41.3008 -0 -85.1348 11.7002 -120.702 41.8506c-35.5508 30.167 -58.6016 79.5186 -58.6016 136.12v302.906c0 56.6182 23.0508 105.97 58.6016 136.12c35.5674 30.1504 79.4014 41.8506 120.702 41.8506zM235.521 551.812c-19.2676 0 -36.7021 -5.9502 -47.2686 -14.917
c-10.584 -8.9668 -18.5176 -20.2168 -18.5176 -49.5342v-315.874c0 -29.3174 7.93359 -40.5674 18.5176 -49.5342c10.5664 -8.9834 28 -14.917 47.2676 -14.917h532.979c19.2676 0 36.7012 5.9502 47.2676 14.917c10.584 8.9668 18.5176 20.2168 18.5176 49.5342v315.891
c0 29.3174 -7.93359 40.5674 -18.5176 49.5342c-10.5664 8.9668 -28 14.9004 -47.2666 14.9004h-532.979z" />
    <glyph glyph-name="O" unicode="&#xd3;" horiz-adv-x="1005" 
d="M219.304 658.848h565.429c41.3008 0 85.1514 -11.7002 120.702 -41.8506c35.5508 -30.167 58.6016 -79.5186 58.6016 -136.12v-302.906c0 -56.6182 -23.0508 -105.97 -58.6016 -136.12s-79.4014 -41.8506 -120.702 -41.8506h-565.429
c-41.3008 -0 -85.1348 11.7002 -120.702 41.8506c-35.5508 30.167 -58.6016 79.5186 -58.6016 136.12v302.906c0 56.6182 23.0508 105.97 58.6016 136.12c35.5674 30.1504 79.4014 41.8506 120.702 41.8506zM235.521 551.812c-19.2676 0 -36.7021 -5.9502 -47.2686 -14.917
c-10.584 -8.9668 -18.5176 -20.2168 -18.5176 -49.5342v-315.874c0 -29.3174 7.93359 -40.5674 18.5176 -49.5342c10.5664 -8.9834 28 -14.917 47.2676 -14.917h532.979c19.2676 0 36.7012 5.9502 47.2676 14.917c10.584 8.9668 18.5176 20.2168 18.5176 49.5342v315.891
c0 29.3174 -7.93359 40.5674 -18.5176 49.5342c-10.5664 8.9668 -28 14.9004 -47.2666 14.9004h-532.979z" />
    <glyph glyph-name="O" unicode="&#xd2;" horiz-adv-x="1005" 
d="M219.304 658.848h565.429c41.3008 0 85.1514 -11.7002 120.702 -41.8506c35.5508 -30.167 58.6016 -79.5186 58.6016 -136.12v-302.906c0 -56.6182 -23.0508 -105.97 -58.6016 -136.12s-79.4014 -41.8506 -120.702 -41.8506h-565.429
c-41.3008 -0 -85.1348 11.7002 -120.702 41.8506c-35.5508 30.167 -58.6016 79.5186 -58.6016 136.12v302.906c0 56.6182 23.0508 105.97 58.6016 136.12c35.5674 30.1504 79.4014 41.8506 120.702 41.8506zM235.521 551.812c-19.2676 0 -36.7021 -5.9502 -47.2686 -14.917
c-10.584 -8.9668 -18.5176 -20.2168 -18.5176 -49.5342v-315.874c0 -29.3174 7.93359 -40.5674 18.5176 -49.5342c10.5664 -8.9834 28 -14.917 47.2676 -14.917h532.979c19.2676 0 36.7012 5.9502 47.2676 14.917c10.584 8.9668 18.5176 20.2168 18.5176 49.5342v315.891
c0 29.3174 -7.93359 40.5674 -18.5176 49.5342c-10.5664 8.9668 -28 14.9004 -47.2666 14.9004h-532.979z" />
    <glyph glyph-name="P" unicode="P" horiz-adv-x="923" 
d="M50 658.848h673.365c41.334 0 85.168 -11.7002 120.719 -41.8506c35.5508 -30.167 58.6182 -79.5186 58.6182 -136.12v-79.6182c0 -56.6182 -23.0674 -105.97 -58.6182 -136.12s-79.3848 -41.8506 -120.719 -41.8506h-543.612v-223.288h-129.753v658.848z
M179.753 551.812l-0.000976562 -221.487h527.395c19.2676 0 36.7012 5.9502 47.2852 14.917c10.5664 8.9668 18.5166 20.2168 18.5166 49.5342v92.6016c0 29.3174 -7.9502 40.5674 -18.5166 49.5342c-10.584 8.9668 -28.0176 14.9004 -47.2842 14.9004h-527.395z" />
    <glyph glyph-name="Q" unicode="Q" horiz-adv-x="1050" 
d="M219.304 659.231l565.412 -0.00195312c41.3008 0 85.1348 -11.7002 120.702 -41.8506c35.5508 -30.167 58.6016 -79.5186 58.6016 -136.12v-302.906c0 -13.4004 -1.2832 -26.3838 -3.7334 -38.8008l81.1348 -46.8506l-53.5342 -92.7188l-78.7686 45.4844
c-1.2334 -1.09961 -2.4502 -2.18262 -3.68359 -3.23242c-35.5674 -30.1504 -79.4014 -41.8506 -120.702 -41.8506h-565.429c-41.3008 0 -85.1514 11.7002 -120.702 41.8506c-35.5508 30.167 -58.6016 79.5186 -58.6016 136.12v302.906
c0 56.6182 23.0508 105.97 58.6016 136.12s79.4014 41.8506 120.702 41.8506zM768.499 552.193h-532.695c-19.2842 0 -36.7178 -5.9502 -47.2842 -14.917s-18.5 -20.2168 -18.5 -49.5342v-315.891c0 -29.3174 7.93359 -40.5674 18.5 -49.5342
c10.584 -8.9834 28.0176 -14.917 47.2842 -14.917h532.979c9.2168 0 17.9834 1.36621 25.8174 3.7666l-349.774 201.938l53.5176 92.7188l138.819 -80.1514v0.433594l197.138 -113.819v275.456c0 29.3174 -7.9502 40.5674 -18.5166 49.5342
c-10.5674 8.9668 -28.0176 14.917 -47.2842 14.917z" />
    <glyph glyph-name="R" unicode="R" horiz-adv-x="945" 
d="M50 0l0.000976562 658.83h673.365c41.3008 0 85.1348 -11.7002 120.686 -41.8506c35.5674 -30.167 58.6182 -79.5186 58.6182 -136.12v-79.6182c0 -49.8174 -17.8506 -94.0186 -46.3682 -124.452c28.5176 -30.4502 46.3682 -74.6348 46.3682 -124.452v-152.354h-129.736
v158.854c0 29.3174 -7.93359 40.5674 -18.5176 49.5342c-10.5664 8.9834 -28 14.917 -47.2676 14.917h-527.412v-223.288h-129.736zM179.737 551.812l-0.000976562 -221.487h527.412c19.2676 0 36.7012 5.9502 47.2676 14.917
c10.584 8.9668 18.5176 20.2168 18.5176 49.5342v92.6016c0 29.3174 -7.93359 40.5674 -18.5176 49.5342c-10.5664 8.9668 -28 14.9004 -47.2666 14.9004h-527.412z" />
    <glyph glyph-name="S" unicode="S" horiz-adv-x="932" 
d="M211.31 658.84l494.062 0.000976562c41.3096 -0.000976562 85.1533 -11.7012 120.706 -41.8555c32.9238 -27.9219 55.1074 -72.3096 58.2139 -123.67h-129.484c-1.01855 24.9229 -8.55469 35.2471 -18.375 43.5791c-10.5762 8.96777 -28.0078 14.9092 -47.2773 14.9092
h-461.627c-19.2695 0 -36.7012 -5.94141 -47.2725 -14.9092c-10.5762 -8.96875 -18.5098 -20.2217 -18.5098 -49.5352v-33.4932c0 -29.3135 7.93457 -40.5664 18.5098 -49.5342c10.5713 -8.96777 28.0029 -14.9092 47.2725 -14.9092h497.828
c41.3096 0 85.1533 -11.7012 120.706 -41.8555s58.6035 -79.5068 58.6035 -136.112l-0.522461 -33.4932c-0.884766 -56.5986 -23.0498 -105.958 -58.6025 -136.112s-79.3965 -41.8555 -120.706 -41.8555h-513.525c-41.3096 0 -85.1494 11.7012 -120.706 41.8555
c-35.5527 30.1543 -58.6035 79.5068 -58.6035 136.112l0.487305 19.6104h129.229c0.0136719 -13.0469 0.0263672 -26.0947 0.0263672 -26.0986c0 -29.3135 7.93359 -40.5664 18.5098 -49.5342s28.0078 -14.9092 47.2773 -14.9092h481.084
c19.2695 0 36.7012 5.94141 47.2773 14.9092s18.5098 20.2207 18.5098 49.5342v58.2959c-1.9043 20.7207 -8.97559 30.0645 -17.9863 37.7061c-10.5762 8.96777 -28.0078 14.9092 -47.2773 14.9092h-497.828c-41.3096 0 -85.1494 11.7012 -120.702 41.8555
c-34.5596 29.3076 -57.293 76.751 -58.5449 131.361l-0.0585938 0.00683594v25.2637c0 56.6055 23.0469 105.958 58.6035 136.112c35.5527 30.1543 79.3926 41.8555 120.702 41.8555z" />
    <glyph glyph-name="T" unicode="T" horiz-adv-x="884" 
d="M1 658.848h882.003v-107.069h-376.142v-551.779h-129.736v551.779h-376.125v107.069z" />
    <glyph glyph-name="U" unicode="U" horiz-adv-x="972" 
d="M45 658.848h129.719v-487.36c0 -29.3174 7.93359 -40.5674 18.5 -49.5342c10.584 -8.9834 28.0176 -14.917 47.2842 -14.917h490.978c19.2676 0 36.7012 5.9502 47.2676 14.917c10.584 8.9668 18.5176 20.2168 18.5176 49.5342v487.36h129.736v-480.877
c0 -56.6182 -23.0508 -105.97 -58.6016 -136.12c-35.5674 -30.1504 -79.4014 -41.8506 -120.702 -41.8506h-523.395c-41.3008 -0 -85.168 11.7002 -120.702 41.8506c-35.5508 30.167 -58.6016 79.5186 -58.6016 136.12v480.877z" />
    <glyph glyph-name="U" unicode="&#xdc;" horiz-adv-x="972" 
d="M45 658.848h129.719v-487.36c0 -29.3174 7.93359 -40.5674 18.5 -49.5342c10.584 -8.9834 28.0176 -14.917 47.2842 -14.917h490.978c19.2676 0 36.7012 5.9502 47.2676 14.917c10.584 8.9668 18.5176 20.2168 18.5176 49.5342v487.36h129.736v-480.877
c0 -56.6182 -23.0508 -105.97 -58.6016 -136.12c-35.5674 -30.1504 -79.4014 -41.8506 -120.702 -41.8506h-523.395c-41.3008 -0 -85.168 11.7002 -120.702 41.8506c-35.5508 30.167 -58.6016 79.5186 -58.6016 136.12v480.877z" />
    <glyph glyph-name="U" unicode="&#xdb;" horiz-adv-x="972" 
d="M45 658.848h129.719v-487.36c0 -29.3174 7.93359 -40.5674 18.5 -49.5342c10.584 -8.9834 28.0176 -14.917 47.2842 -14.917h490.978c19.2676 0 36.7012 5.9502 47.2676 14.917c10.584 8.9668 18.5176 20.2168 18.5176 49.5342v487.36h129.736v-480.877
c0 -56.6182 -23.0508 -105.97 -58.6016 -136.12c-35.5674 -30.1504 -79.4014 -41.8506 -120.702 -41.8506h-523.395c-41.3008 -0 -85.168 11.7002 -120.702 41.8506c-35.5508 30.167 -58.6016 79.5186 -58.6016 136.12v480.877z" />
    <glyph glyph-name="U" unicode="&#xda;" horiz-adv-x="972" 
d="M45 658.848h129.719v-487.36c0 -29.3174 7.93359 -40.5674 18.5 -49.5342c10.584 -8.9834 28.0176 -14.917 47.2842 -14.917h490.978c19.2676 0 36.7012 5.9502 47.2676 14.917c10.584 8.9668 18.5176 20.2168 18.5176 49.5342v487.36h129.736v-480.877
c0 -56.6182 -23.0508 -105.97 -58.6016 -136.12c-35.5674 -30.1504 -79.4014 -41.8506 -120.702 -41.8506h-523.395c-41.3008 -0 -85.168 11.7002 -120.702 41.8506c-35.5508 30.167 -58.6016 79.5186 -58.6016 136.12v480.877z" />
    <glyph glyph-name="U" unicode="&#xd9;" horiz-adv-x="972" 
d="M45 658.848h129.719v-487.36c0 -29.3174 7.93359 -40.5674 18.5 -49.5342c10.584 -8.9834 28.0176 -14.917 47.2842 -14.917h490.978c19.2676 0 36.7012 5.9502 47.2676 14.917c10.584 8.9668 18.5176 20.2168 18.5176 49.5342v487.36h129.736v-480.877
c0 -56.6182 -23.0508 -105.97 -58.6016 -136.12c-35.5674 -30.1504 -79.4014 -41.8506 -120.702 -41.8506h-523.395c-41.3008 -0 -85.168 11.7002 -120.702 41.8506c-35.5508 30.167 -58.6016 79.5186 -58.6016 136.12v480.877z" />
    <glyph glyph-name="V" unicode="V" horiz-adv-x="1035" 
d="M571.213 0h-108.104l-471.11 658.848h159.504l365.658 -511.395l365.658 511.395h159.504z" />
    <glyph glyph-name="W" unicode="W" horiz-adv-x="1414" 
d="M1272.28 658.848h146.053l-347.624 -657.798l0.516602 -1.0498h-143.17l-221.455 476.193l-221.438 -476.193h-143.053l0.516602 1.0498l-347.624 657.798h146.003l270.939 -512.661l238.422 512.661h112.569l238.422 -512.661z" />
    <glyph glyph-name="X" unicode="X" horiz-adv-x="890" 
d="M2.25 658.848h180.721l262.022 -243.822l262.022 243.822h180.721l-352.374 -327.924l355.607 -330.924h-180.721l-265.256 246.839l-265.256 -246.839h-180.737l355.624 330.924z" />
    <glyph glyph-name="Y" unicode="Y" horiz-adv-x="907" 
d="M-11 658.848l180.737 -0.0166016l180.721 -168.17l81.3018 -75.6514l21.0674 -19.6172l21.0674 19.6172l81.3018 75.6514l180.721 168.17h180.721l-180.721 -168.17l-171.653 -159.737l-21.0674 -19.6172l-25.501 -23.7168v-287.573h-129.753v287.59l-25.4668 23.7168
l-21.084 19.6172l-171.671 159.737z" />
    <glyph glyph-name="Y" unicode="&#x178;" horiz-adv-x="907" 
d="M-11 658.848l180.737 -0.0166016l180.721 -168.17l81.3018 -75.6514l21.0674 -19.6172l21.0674 19.6172l81.3018 75.6514l180.721 168.17h180.721l-180.721 -168.17l-171.653 -159.737l-21.0674 -19.6172l-25.501 -23.7168v-287.573h-129.753v287.59l-25.4668 23.7168
l-21.084 19.6172l-171.671 159.737z" />
    <glyph glyph-name="Y" unicode="&#xdd;" horiz-adv-x="907" 
d="M-11 658.848l180.737 -0.0166016l180.721 -168.17l81.3018 -75.6514l21.0674 -19.6172l21.0674 19.6172l81.3018 75.6514l180.721 168.17h180.721l-180.721 -168.17l-171.653 -159.737l-21.0674 -19.6172l-25.501 -23.7168v-287.573h-129.753v287.59l-25.4668 23.7168
l-21.084 19.6172l-171.671 159.737z" />
    <glyph glyph-name="Z" unicode="Z" horiz-adv-x="885" 
d="M29.4004 658.848l792.818 0.0166016h45.5674v-102.586l-394.692 -272.289l-0.616211 0.866211l-0.75 -1.75l-161.337 -111.319l-93.8857 -64.751h651.197v-107.069h-852.702v102.103l395.342 272.723l256.572 176.987h-637.514v107.069z" />
    <glyph glyph-name="a" unicode="a" horiz-adv-x="799" 
d="M231.638 556.162l344.691 -0.0175781c80.4521 0 179.071 -53.6846 179.071 -165.153v-390.992h-129.536v35.1846c-34.084 -24.6338 -76.918 -35.5508 -115.603 -35.5508h-306.307c-80.4521 0 -178.954 47.2012 -178.954 166.787s98.5186 173.271 178.954 173.271h306.307
c38.6846 0 81.5186 -12.417 115.603 -38.6006v89.9189c0 24.6504 -11.1836 58.1182 -65.7852 58.1182h-312.224c-54.6182 0 -65.7852 -33.4512 -65.7852 -58.1182h-129.503c0.0996094 111.469 98.6016 165.153 179.07 165.153zM229.904 232.654
c-54.6016 0 -65.7852 -33.4678 -65.7852 -66.2354s11.1836 -59.752 65.7852 -59.752h329.007c54.6182 0 65.7852 26.9844 65.7852 59.752s-11.1836 66.2354 -65.7852 66.2354h-329.007z" />
    <glyph glyph-name="a" unicode="&#xe5;" horiz-adv-x="799" 
d="M231.638 556.162l344.691 -0.0175781c80.4521 0 179.071 -53.6846 179.071 -165.153v-390.992h-129.536v35.1846c-34.084 -24.6338 -76.918 -35.5508 -115.603 -35.5508h-306.307c-80.4521 0 -178.954 47.2012 -178.954 166.787s98.5186 173.271 178.954 173.271h306.307
c38.6846 0 81.5186 -12.417 115.603 -38.6006v89.9189c0 24.6504 -11.1836 58.1182 -65.7852 58.1182h-312.224c-54.6182 0 -65.7852 -33.4512 -65.7852 -58.1182h-129.503c0.0996094 111.469 98.6016 165.153 179.07 165.153zM229.904 232.654
c-54.6016 0 -65.7852 -33.4678 -65.7852 -66.2354s11.1836 -59.752 65.7852 -59.752h329.007c54.6182 0 65.7852 26.9844 65.7852 59.752s-11.1836 66.2354 -65.7852 66.2354h-329.007z" />
    <glyph glyph-name="a" unicode="&#xe4;" horiz-adv-x="799" 
d="M231.638 556.162l344.691 -0.0175781c80.4521 0 179.071 -53.6846 179.071 -165.153v-390.992h-129.536v35.1846c-34.084 -24.6338 -76.918 -35.5508 -115.603 -35.5508h-306.307c-80.4521 0 -178.954 47.2012 -178.954 166.787s98.5186 173.271 178.954 173.271h306.307
c38.6846 0 81.5186 -12.417 115.603 -38.6006v89.9189c0 24.6504 -11.1836 58.1182 -65.7852 58.1182h-312.224c-54.6182 0 -65.7852 -33.4512 -65.7852 -58.1182h-129.503c0.0996094 111.469 98.6016 165.153 179.07 165.153zM229.904 232.654
c-54.6016 0 -65.7852 -33.4678 -65.7852 -66.2354s11.1836 -59.752 65.7852 -59.752h329.007c54.6182 0 65.7852 26.9844 65.7852 59.752s-11.1836 66.2354 -65.7852 66.2354h-329.007z" />
    <glyph glyph-name="a" unicode="&#xe3;" horiz-adv-x="799" 
d="M231.638 556.162l344.691 -0.0175781c80.4521 0 179.071 -53.6846 179.071 -165.153v-390.992h-129.536v35.1846c-34.084 -24.6338 -76.918 -35.5508 -115.603 -35.5508h-306.307c-80.4521 0 -178.954 47.2012 -178.954 166.787s98.5186 173.271 178.954 173.271h306.307
c38.6846 0 81.5186 -12.417 115.603 -38.6006v89.9189c0 24.6504 -11.1836 58.1182 -65.7852 58.1182h-312.224c-54.6182 0 -65.7852 -33.4512 -65.7852 -58.1182h-129.503c0.0996094 111.469 98.6016 165.153 179.07 165.153zM229.904 232.654
c-54.6016 0 -65.7852 -33.4678 -65.7852 -66.2354s11.1836 -59.752 65.7852 -59.752h329.007c54.6182 0 65.7852 26.9844 65.7852 59.752s-11.1836 66.2354 -65.7852 66.2354h-329.007z" />
    <glyph glyph-name="a" unicode="&#xe2;" horiz-adv-x="799" 
d="M231.638 556.162l344.691 -0.0175781c80.4521 0 179.071 -53.6846 179.071 -165.153v-390.992h-129.536v35.1846c-34.084 -24.6338 -76.918 -35.5508 -115.603 -35.5508h-306.307c-80.4521 0 -178.954 47.2012 -178.954 166.787s98.5186 173.271 178.954 173.271h306.307
c38.6846 0 81.5186 -12.417 115.603 -38.6006v89.9189c0 24.6504 -11.1836 58.1182 -65.7852 58.1182h-312.224c-54.6182 0 -65.7852 -33.4512 -65.7852 -58.1182h-129.503c0.0996094 111.469 98.6016 165.153 179.07 165.153zM229.904 232.654
c-54.6016 0 -65.7852 -33.4678 -65.7852 -66.2354s11.1836 -59.752 65.7852 -59.752h329.007c54.6182 0 65.7852 26.9844 65.7852 59.752s-11.1836 66.2354 -65.7852 66.2354h-329.007z" />
    <glyph glyph-name="a" unicode="&#xe1;" horiz-adv-x="799" 
d="M231.638 556.162l344.691 -0.0175781c80.4521 0 179.071 -53.6846 179.071 -165.153v-390.992h-129.536v35.1846c-34.084 -24.6338 -76.918 -35.5508 -115.603 -35.5508h-306.307c-80.4521 0 -178.954 47.2012 -178.954 166.787s98.5186 173.271 178.954 173.271h306.307
c38.6846 0 81.5186 -12.417 115.603 -38.6006v89.9189c0 24.6504 -11.1836 58.1182 -65.7852 58.1182h-312.224c-54.6182 0 -65.7852 -33.4512 -65.7852 -58.1182h-129.503c0.0996094 111.469 98.6016 165.153 179.07 165.153zM229.904 232.654
c-54.6016 0 -65.7852 -33.4678 -65.7852 -66.2354s11.1836 -59.752 65.7852 -59.752h329.007c54.6182 0 65.7852 26.9844 65.7852 59.752s-11.1836 66.2354 -65.7852 66.2354h-329.007z" />
    <glyph glyph-name="a" unicode="&#xe0;" horiz-adv-x="799" 
d="M231.638 556.162l344.691 -0.0175781c80.4521 0 179.071 -53.6846 179.071 -165.153v-390.992h-129.536v35.1846c-34.084 -24.6338 -76.918 -35.5508 -115.603 -35.5508h-306.307c-80.4521 0 -178.954 47.2012 -178.954 166.787s98.5186 173.271 178.954 173.271h306.307
c38.6846 0 81.5186 -12.417 115.603 -38.6006v89.9189c0 24.6504 -11.1836 58.1182 -65.7852 58.1182h-312.224c-54.6182 0 -65.7852 -33.4512 -65.7852 -58.1182h-129.503c0.0996094 111.469 98.6016 165.153 179.07 165.153zM229.904 232.654
c-54.6016 0 -65.7852 -33.4678 -65.7852 -66.2354s11.1836 -59.752 65.7852 -59.752h329.007c54.6182 0 65.7852 26.9844 65.7852 59.752s-11.1836 66.2354 -65.7852 66.2354h-329.007z" />
    <glyph glyph-name="b" unicode="b" 
d="M578.312 -0.599609h-286.14c-38.2178 0 -80.5352 12.1338 -114.436 36.834v-36.2344h-129.736v717.832l129.736 -1.2168v-201.404c33.9004 24.7002 76.2178 36.834 114.436 36.834h286.14c80.4688 0 180.654 -53.6846 180.654 -165.153v-222.338
c-0.116211 -111.469 -100.186 -165.153 -180.654 -165.153zM561.944 106.437c54.6016 0 67.3516 33.4512 67.3516 58.1182v222.338c0 24.6504 -12.75 58.1182 -67.3516 58.1182h-318.557c-54.6182 0 -65.8018 -33.4512 -65.8018 -58.1182v-222.338
c0 -24.6504 11.1836 -58.1182 65.8018 -58.1182h318.557z" />
    <glyph glyph-name="c" unicode="c" horiz-adv-x="792" 
d="M217.638 552.046h370.591c80.4688 0 179.088 -53.6846 179.088 -165.153h-129.52c0 24.6504 -11.167 58.1182 -65.7686 58.1182h-338.174c-54.6182 0 -67.3682 -33.4512 -67.3682 -58.1182v-222.338c0 -24.6504 12.75 -58.1182 67.3682 -58.1182h338.19
c54.6182 0 65.7852 33.4512 65.7852 58.1182h129.486c-0.0830078 -111.469 -98.6016 -165.153 -179.054 -165.153h-370.608c-80.4688 0 -180.654 53.6846 -180.654 165.153v222.338c0.0996094 111.469 100.186 165.153 180.638 165.153z" />
    <glyph glyph-name="c" unicode="&#xe7;" horiz-adv-x="792" 
d="M217.638 552.046h370.591c80.4688 0 179.088 -53.6846 179.088 -165.153h-129.52c0 24.6504 -11.167 58.1182 -65.7686 58.1182h-338.174c-54.6182 0 -67.3682 -33.4512 -67.3682 -58.1182v-222.338c0 -24.6504 12.75 -58.1182 67.3682 -58.1182h338.19
c54.6182 0 65.7852 33.4512 65.7852 58.1182h129.486c-0.0830078 -111.469 -98.6016 -165.153 -179.054 -165.153h-370.608c-80.4688 0 -180.654 53.6846 -180.654 165.153v222.338c0.0996094 111.469 100.186 165.153 180.638 165.153z" />
    <glyph glyph-name="d" unicode="d" 
d="M503.777 -0.599609h-286.123c-80.4688 0 -180.555 53.6846 -180.654 165.153v222.338c0 111.469 100.186 165.153 180.654 165.153h286.123c38.2344 0 80.5518 -12.1338 114.452 -36.834v201.404l129.736 1.2168v-717.832h-129.736v36.2344
c-33.9004 -24.7002 -76.2178 -36.834 -114.452 -36.834zM166.653 164.554c0 -24.667 12.75 -58.1182 67.3682 -58.1182h318.557c54.6182 0 65.7852 33.4678 65.7852 58.1182v222.338c0 24.667 -11.1836 58.1182 -65.7852 58.1182h-318.557
c-54.6182 0 -67.3682 -33.4678 -67.3682 -58.1182v-222.338z" />
    <glyph glyph-name="e" unicode="e" horiz-adv-x="804" 
d="M217.654 552.296l370.724 0.000976562c80.4521 0 179.055 -53.6846 179.055 -165.153v-162.037h-600.913v-60.3018c0 -24.6504 12.7334 -58.1182 67.3516 -58.1182h338.174c54.6182 0 65.8018 33.4512 65.8018 58.1182h129.503
c-0.116211 -111.469 -98.6348 -165.153 -179.087 -165.153h-370.608c-80.4521 0 -180.654 53.6846 -180.654 165.153v222.338c0.0996094 111.469 100.202 165.153 180.654 165.153zM572.044 445.261h-338.323c-54.6016 0 -67.3516 -33.4512 -67.3516 -58.1182v-55.335
h471.46v55.335c0 24.6504 -11.167 58.1182 -65.7852 58.1182z" />
    <glyph glyph-name="e" unicode="&#xeb;" horiz-adv-x="804" 
d="M217.654 552.296l370.724 0.000976562c80.4521 0 179.055 -53.6846 179.055 -165.153v-162.037h-600.913v-60.3018c0 -24.6504 12.7334 -58.1182 67.3516 -58.1182h338.174c54.6182 0 65.8018 33.4512 65.8018 58.1182h129.503
c-0.116211 -111.469 -98.6348 -165.153 -179.087 -165.153h-370.608c-80.4521 0 -180.654 53.6846 -180.654 165.153v222.338c0.0996094 111.469 100.202 165.153 180.654 165.153zM572.044 445.261h-338.323c-54.6016 0 -67.3516 -33.4512 -67.3516 -58.1182v-55.335
h471.46v55.335c0 24.6504 -11.167 58.1182 -65.7852 58.1182z" />
    <glyph glyph-name="e" unicode="&#xea;" horiz-adv-x="804" 
d="M217.654 552.296l370.724 0.000976562c80.4521 0 179.055 -53.6846 179.055 -165.153v-162.037h-600.913v-60.3018c0 -24.6504 12.7334 -58.1182 67.3516 -58.1182h338.174c54.6182 0 65.8018 33.4512 65.8018 58.1182h129.503
c-0.116211 -111.469 -98.6348 -165.153 -179.087 -165.153h-370.608c-80.4521 0 -180.654 53.6846 -180.654 165.153v222.338c0.0996094 111.469 100.202 165.153 180.654 165.153zM572.044 445.261h-338.323c-54.6016 0 -67.3516 -33.4512 -67.3516 -58.1182v-55.335
h471.46v55.335c0 24.6504 -11.167 58.1182 -65.7852 58.1182z" />
    <glyph glyph-name="e" unicode="&#xe9;" horiz-adv-x="804" 
d="M217.654 552.296l370.724 0.000976562c80.4521 0 179.055 -53.6846 179.055 -165.153v-162.037h-600.913v-60.3018c0 -24.6504 12.7334 -58.1182 67.3516 -58.1182h338.174c54.6182 0 65.8018 33.4512 65.8018 58.1182h129.503
c-0.116211 -111.469 -98.6348 -165.153 -179.087 -165.153h-370.608c-80.4521 0 -180.654 53.6846 -180.654 165.153v222.338c0.0996094 111.469 100.202 165.153 180.654 165.153zM572.044 445.261h-338.323c-54.6016 0 -67.3516 -33.4512 -67.3516 -58.1182v-55.335
h471.46v55.335c0 24.6504 -11.167 58.1182 -65.7852 58.1182z" />
    <glyph glyph-name="e" unicode="&#xe8;" horiz-adv-x="804" 
d="M217.654 552.296l370.724 0.000976562c80.4521 0 179.055 -53.6846 179.055 -165.153v-162.037h-600.913v-60.3018c0 -24.6504 12.7334 -58.1182 67.3516 -58.1182h338.174c54.6182 0 65.8018 33.4512 65.8018 58.1182h129.503
c-0.116211 -111.469 -98.6348 -165.153 -179.087 -165.153h-370.608c-80.4521 0 -180.654 53.6846 -180.654 165.153v222.338c0.0996094 111.469 100.202 165.153 180.654 165.153zM572.044 445.261h-338.323c-54.6016 0 -67.3516 -33.4512 -67.3516 -58.1182v-55.335
h471.46v55.335c0 24.6504 -11.167 58.1182 -65.7852 58.1182z" />
    <glyph glyph-name="f" unicode="f" horiz-adv-x="467" 
d="M274.306 748.684l186.538 0.00195312v-107.036h-170.387c-25.667 0 -36.6836 -5.9502 -47.2676 -14.917c-17.6172 -17.6504 -18.5176 -21.9336 -18.5176 -74.1348h236.155v-106.702l-236.155 -0.799805v-444.96l-129.687 -0.133789v445.093h-82.9854v106.702l83.002 -0.5
s1.91699 50.2012 5.2168 64.4014c8.65039 37.3838 27.668 69.3174 53.3848 91.1348c35.5508 30.1504 79.4014 41.8506 120.702 41.8506z" />
    <glyph glyph-name="g" unicode="g" horiz-adv-x="797" 
d="M217.638 552.646h286.572c38.251 0 80.5684 -12.1338 114.452 -36.834v36.2344h129.736v-611.047c-0.0996094 -111.469 -98.6182 -165.153 -179.07 -165.153h-341.424c-80.4521 0 -179.088 53.6846 -179.088 165.153h129.52c0 -24.6504 11.167 -58.1182 65.7852 -58.1182
h308.99c54.6016 0 66.0518 33.4678 65.5684 45.8018l-0.466797 108.152c-33.9004 -24.7002 -76.2178 -36.834 -114.436 -36.834h-286.14c-80.4521 0 -180.638 53.6846 -180.638 165.153v222.338c0.116211 111.469 100.186 165.153 180.638 165.153zM234.021 445.609
c-54.6182 0 -67.3682 -33.4678 -67.3682 -58.1182v-222.338c0 -24.6504 12.75 -58.1182 67.3682 -58.1182h318.557c54.6348 0 65.8018 33.4512 65.8018 58.1182v222.338c0 24.6504 -11.167 58.1182 -65.8018 58.1182h-318.557z" />
    <glyph glyph-name="h" unicode="h" horiz-adv-x="767" 
d="M48 716.616l129.688 -0.000976562v-202.671c34.7012 27.3672 76.5684 38.1006 116.103 38.1006h249.605c41.3008 0 85.168 -11.7002 120.702 -41.8506c25.7344 -21.8174 44.751 -53.751 53.3848 -91.1348c3.2832 -14.2002 4.36621 -30.0176 5.21582 -45.1514
c2.59961 -44.7676 1.59961 -330.674 0.75 -373.908h-130.47v374.574c-0.400391 38.918 -7.93359 46.5684 -18.5176 55.5352c-10.5664 8.9834 -28 14.917 -47.2676 14.917h-282.039c-19.25 0 -36.6836 -5.9502 -47.2676 -14.917s-18.0342 -16.6172 -18.501 -55.5352
c-0.0498047 -6.0498 -1.64941 -374.574 -1.64941 -374.574h-129.736v716.616z" />
    <glyph glyph-name="i" unicode="i" horiz-adv-x="226" 
d="M48 716.616h129.736v-107.036h-129.736v107.036zM48 551.812h129.736v-551.812h-129.736v551.812z" />
    <glyph glyph-name="i" unicode="&#xef;" horiz-adv-x="226" 
d="M48 716.616h129.736v-107.036h-129.736v107.036zM48 551.812h129.736v-551.812h-129.736v551.812z" />
    <glyph glyph-name="i" unicode="&#xee;" horiz-adv-x="226" 
d="M48 716.616h129.736v-107.036h-129.736v107.036zM48 551.812h129.736v-551.812h-129.736v551.812z" />
    <glyph glyph-name="i" unicode="&#xed;" horiz-adv-x="226" 
d="M48 716.616h129.736v-107.036h-129.736v107.036zM48 551.812h129.736v-551.812h-129.736v551.812z" />
    <glyph glyph-name="i" unicode="&#xec;" horiz-adv-x="226" 
d="M48 716.616h129.736v-107.036h-129.736v107.036zM48 551.812h129.736v-551.812h-129.736v551.812z" />
    <glyph glyph-name="j" unicode="j" horiz-adv-x="227" 
d="M48.3701 716.616h129.736v-107.036h-129.736v107.036zM178.106 551.812l-0.201172 -0.00292969v-539.646s-1.9668 -30.9502 -5.2334 -45.1504c-8.65039 -37.3838 -27.667 -69.3174 -53.3838 -91.1348c-35.5342 -30.1504 -79.3848 -41.8506 -120.702 -41.8506h-103.586
v107.036h87.3516c19.2676 0 36.7012 5.9502 47.2676 14.917c10.5674 8.9668 18.3174 16.6172 18.3174 36.7178l0.483398 558.329v0.650391z" />
    <glyph glyph-name="k" unicode="k" horiz-adv-x="717" 
d="M48 716.616l129.121 -0.0166016h0.616211v-382.658h73.085l270.206 217.854h178.054l-335.491 -270.506l350.774 -281.307h-177.954l-282.906 226.889h-75.7686v-226.872h-129.736v716.616z" />
    <glyph glyph-name="l" unicode="l" horiz-adv-x="226" 
d="M48 716.616l129.137 -0.0166016h0.616211v-716.6h-129.753v716.616z" />
    <glyph glyph-name="m" unicode="m" horiz-adv-x="1051" 
d="M293.839 552.046l119.292 -0.000976562c41.3174 0 85.1514 -11.7002 120.702 -41.8506c9.9834 -8.4502 18.9336 -18.4502 26.667 -29.667c7.7334 11.2168 16.6836 21.2168 26.6504 29.667c35.5508 30.1504 79.4014 41.8506 120.702 41.8506h119.869
c41.3174 0 85.1348 -11.7002 120.719 -41.8506c25.7002 -21.8174 44.7168 -53.751 53.3672 -91.1348c3.2832 -14.2002 4.31641 -30.0176 5.2168 -45.1514c2.88379 -49.4678 1.41699 -334.391 0.516602 -373.908h-130.22v374.575
c-0.383789 38.918 -7.91699 46.5684 -18.501 55.5352c-10.5664 8.9834 -28 14.917 -47.2666 14.917h-152.304c-19.2676 0 -36.7012 -5.9502 -47.2852 -14.917c-10.5674 -8.9668 -18.0342 -16.6172 -18.501 -55.5352v-374.575h-130.92v374.574
c-0.400391 38.918 -7.9502 46.5684 -18.5342 55.5352c-10.5664 8.9834 -27.9834 14.917 -47.2676 14.917h-151.57c-19.2676 0 -36.7012 -5.9502 -47.2852 -14.917c-10.5674 -8.9668 -18.0176 -16.6172 -18.501 -55.5352
c-0.0498047 -6.0498 -1.64941 -374.574 -1.64941 -374.574h-129.736v551.812h129.736v-37.8672c34.7012 27.3672 76.5518 38.1006 116.103 38.1006z" />
    <glyph glyph-name="n" unicode="n" horiz-adv-x="767" 
d="M293.855 552.046l249.59 -0.000976562c41.3008 0 85.1348 -11.7002 120.686 -41.8506c25.7168 -21.8174 44.7344 -53.751 53.3848 -91.1348c3.2832 -14.2002 4.36621 -30.0176 5.21582 -45.1514c2.59961 -44.7676 1.59961 -330.674 0.75 -373.908h-130.47v374.574
c-0.383789 38.918 -7.93359 46.5684 -18.5176 55.5352c-10.5498 8.9834 -28 14.917 -47.2676 14.917h-282.039c-19.2676 0 -36.7012 -5.9502 -47.2676 -14.917c-10.584 -8.9668 -18.0508 -16.6172 -18.5176 -55.5352
c-0.0498047 -6.0498 -1.64941 -374.574 -1.64941 -374.574h-129.753v551.812h129.753v-37.8672c34.7012 27.3672 76.5684 38.1006 116.103 38.1006z" />
    <glyph glyph-name="n" unicode="&#xf1;" horiz-adv-x="767" 
d="M293.855 552.046l249.59 -0.000976562c41.3008 0 85.1348 -11.7002 120.686 -41.8506c25.7168 -21.8174 44.7344 -53.751 53.3848 -91.1348c3.2832 -14.2002 4.36621 -30.0176 5.21582 -45.1514c2.59961 -44.7676 1.59961 -330.674 0.75 -373.908h-130.47v374.574
c-0.383789 38.918 -7.93359 46.5684 -18.5176 55.5352c-10.5498 8.9834 -28 14.917 -47.2676 14.917h-282.039c-19.2676 0 -36.7012 -5.9502 -47.2676 -14.917c-10.584 -8.9668 -18.0508 -16.6172 -18.5176 -55.5352
c-0.0498047 -6.0498 -1.64941 -374.574 -1.64941 -374.574h-129.753v551.812h129.753v-37.8672c34.7012 27.3672 76.5684 38.1006 116.103 38.1006z" />
    <glyph glyph-name="o" unicode="o" horiz-adv-x="806" 
d="M217.638 552.046h370.624c80.4521 0 179.071 -53.6846 179.071 -165.153v-222.338c-0.116211 -111.469 -98.6348 -165.153 -179.087 -165.153h-370.608c-80.4688 0 -180.638 53.6846 -180.638 165.153v222.338c0.0830078 111.469 100.186 165.153 180.638 165.153z
M572.045 445.01h-338.19c-54.6016 0 -67.3516 -33.4678 -67.335 -58.1182v-222.338c0 -24.6504 12.75 -58.1182 67.3516 -58.1182h338.19c54.6016 0 65.7686 33.4512 65.7686 58.1182v222.338c0 24.6504 -11.167 58.1182 -65.7852 58.1182z" />
    <glyph glyph-name="o" unicode="&#xf8;" horiz-adv-x="806" 
d="M217.638 552.046h370.624c80.4521 0 179.071 -53.6846 179.071 -165.153v-222.338c-0.116211 -111.469 -98.6348 -165.153 -179.087 -165.153h-370.608c-80.4688 0 -180.638 53.6846 -180.638 165.153v222.338c0.0830078 111.469 100.186 165.153 180.638 165.153z
M572.045 445.01h-338.19c-54.6016 0 -67.3516 -33.4678 -67.335 -58.1182v-222.338c0 -24.6504 12.75 -58.1182 67.3516 -58.1182h338.19c54.6016 0 65.7686 33.4512 65.7686 58.1182v222.338c0 24.6504 -11.167 58.1182 -65.7852 58.1182z" />
    <glyph glyph-name="o" unicode="&#xf6;" horiz-adv-x="806" 
d="M217.638 552.046h370.624c80.4521 0 179.071 -53.6846 179.071 -165.153v-222.338c-0.116211 -111.469 -98.6348 -165.153 -179.087 -165.153h-370.608c-80.4688 0 -180.638 53.6846 -180.638 165.153v222.338c0.0830078 111.469 100.186 165.153 180.638 165.153z
M572.045 445.01h-338.19c-54.6016 0 -67.3516 -33.4678 -67.335 -58.1182v-222.338c0 -24.6504 12.75 -58.1182 67.3516 -58.1182h338.19c54.6016 0 65.7686 33.4512 65.7686 58.1182v222.338c0 24.6504 -11.167 58.1182 -65.7852 58.1182z" />
    <glyph glyph-name="o" unicode="&#xf5;" horiz-adv-x="806" 
d="M217.638 552.046h370.624c80.4521 0 179.071 -53.6846 179.071 -165.153v-222.338c-0.116211 -111.469 -98.6348 -165.153 -179.087 -165.153h-370.608c-80.4688 0 -180.638 53.6846 -180.638 165.153v222.338c0.0830078 111.469 100.186 165.153 180.638 165.153z
M572.045 445.01h-338.19c-54.6016 0 -67.3516 -33.4678 -67.335 -58.1182v-222.338c0 -24.6504 12.75 -58.1182 67.3516 -58.1182h338.19c54.6016 0 65.7686 33.4512 65.7686 58.1182v222.338c0 24.6504 -11.167 58.1182 -65.7852 58.1182z" />
    <glyph glyph-name="o" unicode="&#xf4;" horiz-adv-x="806" 
d="M217.638 552.046h370.624c80.4521 0 179.071 -53.6846 179.071 -165.153v-222.338c-0.116211 -111.469 -98.6348 -165.153 -179.087 -165.153h-370.608c-80.4688 0 -180.638 53.6846 -180.638 165.153v222.338c0.0830078 111.469 100.186 165.153 180.638 165.153z
M572.045 445.01h-338.19c-54.6016 0 -67.3516 -33.4678 -67.335 -58.1182v-222.338c0 -24.6504 12.75 -58.1182 67.3516 -58.1182h338.19c54.6016 0 65.7686 33.4512 65.7686 58.1182v222.338c0 24.6504 -11.167 58.1182 -65.7852 58.1182z" />
    <glyph glyph-name="o" unicode="&#xf3;" horiz-adv-x="806" 
d="M217.638 552.046h370.624c80.4521 0 179.071 -53.6846 179.071 -165.153v-222.338c-0.116211 -111.469 -98.6348 -165.153 -179.087 -165.153h-370.608c-80.4688 0 -180.638 53.6846 -180.638 165.153v222.338c0.0830078 111.469 100.186 165.153 180.638 165.153z
M572.045 445.01h-338.19c-54.6016 0 -67.3516 -33.4678 -67.335 -58.1182v-222.338c0 -24.6504 12.75 -58.1182 67.3516 -58.1182h338.19c54.6016 0 65.7686 33.4512 65.7686 58.1182v222.338c0 24.6504 -11.167 58.1182 -65.7852 58.1182z" />
    <glyph glyph-name="o" unicode="&#xf2;" horiz-adv-x="806" 
d="M217.638 552.046h370.624c80.4521 0 179.071 -53.6846 179.071 -165.153v-222.338c-0.116211 -111.469 -98.6348 -165.153 -179.087 -165.153h-370.608c-80.4688 0 -180.638 53.6846 -180.638 165.153v222.338c0.0830078 111.469 100.186 165.153 180.638 165.153z
M572.045 445.01h-338.19c-54.6016 0 -67.3516 -33.4678 -67.335 -58.1182v-222.338c0 -24.6504 12.75 -58.1182 67.3516 -58.1182h338.19c54.6016 0 65.7686 33.4512 65.7686 58.1182v222.338c0 24.6504 -11.167 58.1182 -65.7852 58.1182z" />
    <glyph glyph-name="p" unicode="p" 
d="M292.155 553.929l286.156 -0.0166016c80.4521 0 180.654 -53.6846 180.654 -165.153v-222.338c-0.0996094 -111.469 -100.202 -165.153 -180.654 -165.153h-286.156c-38.2178 0 -80.5352 12.1338 -114.419 36.834v-183.454h-129.736v698.682h129.736v-36.2344
c33.8838 24.7002 76.2012 36.834 114.419 36.834zM243.537 446.894c-54.6348 0 -65.8018 -33.4678 -65.8018 -58.1182v-222.338c0 -24.6504 11.167 -58.1182 65.8018 -58.1182h318.557c54.6182 0 67.3516 33.4512 67.3516 58.1182v222.338
c0 24.6504 -12.7334 58.1182 -67.3516 58.1182h-318.557z" />
    <glyph glyph-name="q" unicode="q" 
d="M217.638 552.646h286.14c38.2344 0 80.5518 -12.1338 114.419 -36.834v36.2344h129.753v-697.398h-129.753v182.188c-33.8672 -24.7002 -76.1846 -36.834 -114.419 -36.834h-286.14c-80.4521 0 -180.638 53.6846 -180.638 165.153v222.338
c0.116211 111.469 100.186 165.153 180.638 165.153zM234.021 445.609c-54.6348 0 -67.3682 -33.4678 -67.3682 -58.1182v-222.338c0 -24.6504 12.7334 -58.1182 67.3682 -58.1182h318.573c54.6016 0 65.7686 33.4512 65.7686 58.1182v222.338
c0 24.6504 -11.167 58.1182 -65.7686 58.1182h-318.573z" />
    <glyph glyph-name="r" unicode="r" horiz-adv-x="607" 
d="M293.839 552.046l126.569 0.0146484c41.3008 0 85.1348 -11.7002 120.686 -41.8506c25.7168 -21.8174 44.7334 -53.751 53.3838 -91.1348c2.5498 -11.0674 3.68359 -23.1006 4.58398 -35.0342h-129.386c-1.4668 30.7178 -8.58398 37.8848 -18.2344 46.0684
c-10.5664 8.9834 -28 14.917 -47.2666 14.917h-159.021c-19.25 0 -36.6836 -5.9502 -47.2676 -14.917c-10.5674 -8.9668 -18.0342 -16.6172 -18.501 -55.5352c-0.0498047 -6.0498 -1.64941 -374.574 -1.64941 -374.574h-129.736v551.812h129.736v-37.8672
c34.7178 27.3672 76.5684 38.1006 116.103 38.1006z" />
    <glyph glyph-name="s" unicode="s" horiz-adv-x="745" 
d="M208.07 552.062l319.323 0.0996094c92.3857 0 176.287 -66.1016 176.287 -169.504l-129.17 -0.133789c1.2666 41.2344 -26.5342 62.5352 -61.918 62.5352h-288.323c-54.6348 0 -65.8018 -33.4512 -65.8018 -58.1182c0 -25.5176 12.3174 -56.585 65.8018 -56.585h313.424
c78.1016 0 179.087 -52.2344 179.087 -164.97c0 -111.603 -98.6025 -165.354 -179.088 -165.354h-323.224c-88.4023 0 -179.004 59.2676 -179.004 169.57c0 0 129.053 0 129.52 0.133789c0 -28.4004 11.1172 -62.7012 65.7188 -62.7012h290.79
c54.6016 0 65.7686 33.4512 65.7686 58.1182c0 25.501 -12.2998 58.1182 -65.7676 58.1182h-313.424c-78.1016 0 -179.07 50.7012 -179.07 163.437c0 111.603 98.5518 165.354 179.07 165.354z" />
    <glyph glyph-name="t" unicode="t" horiz-adv-x="578" 
d="M93.0029 687.611h129.776v-135.809h332.255v-107.069h-332.246l0.00878906 -267.265c0.384766 -38.916 7.92969 -46.5625 18.5049 -55.5303c10.5752 -8.96875 28.0078 -14.9102 47.2725 -14.9102h70.4434c19.2734 0 36.7061 5.94141 47.2812 14.9102
c9.43066 7.99805 16.4307 15.0127 18.1201 44.0293h129.185c-0.875977 -10.2891 -2.28809 -24.4082 -4.27246 -32.9902c-8.63574 -37.3799 -27.6592 -69.3223 -53.3779 -91.1338c-35.5527 -30.1543 -79.3926 -41.8516 -120.702 -41.8516h-102.902
c-41.3096 0 -85.1494 11.6973 -120.711 41.8516c-25.71 21.8115 -44.7334 53.7539 -53.3691 91.1338c-3.29004 14.1992 -5.23047 45.1504 -5.23047 45.1504l-0.0175781 266.605h-83.0215v107.069h83.0127z" />
    <glyph glyph-name="u" unicode="u" horiz-adv-x="767" 
d="M472.509 0h-249.519c-41.3203 0 -85.1504 11.7002 -120.721 41.8506c-25.7002 21.8203 -44.71 53.75 -53.3604 91.1396c-3.29004 14.2002 -4.32031 30.0098 -5.2207 45.1494c-2.59961 44.7598 -1.64941 330.67 -0.749023 373.91h130.47v-374.579
c0.379883 -38.9199 7.92969 -46.5703 18.5195 -55.5303c10.5596 -8.99023 28 -14.9199 47.2598 -14.9199h282.04c19.25 0 36.6904 5.9502 47.2705 14.9199c10.5801 8.95996 18.0303 16.6104 18.5 55.5303c0.0498047 6.0498 1.64941 374.58 1.64941 374.58h129.74v-551.82
h-129.77v37.8701c-34.6904 -27.3701 -76.54 -38.1006 -116.11 -38.1006z" />
    <glyph glyph-name="u" unicode="&#xfc;" horiz-adv-x="767" 
d="M472.509 0h-249.519c-41.3203 0 -85.1504 11.7002 -120.721 41.8506c-25.7002 21.8203 -44.71 53.75 -53.3604 91.1396c-3.29004 14.2002 -4.32031 30.0098 -5.2207 45.1494c-2.59961 44.7598 -1.64941 330.67 -0.749023 373.91h130.47v-374.579
c0.379883 -38.9199 7.92969 -46.5703 18.5195 -55.5303c10.5596 -8.99023 28 -14.9199 47.2598 -14.9199h282.04c19.25 0 36.6904 5.9502 47.2705 14.9199c10.5801 8.95996 18.0303 16.6104 18.5 55.5303c0.0498047 6.0498 1.64941 374.58 1.64941 374.58h129.74v-551.82
h-129.77v37.8701c-34.6904 -27.3701 -76.54 -38.1006 -116.11 -38.1006z" />
    <glyph glyph-name="u" unicode="&#xfb;" horiz-adv-x="767" 
d="M472.509 0h-249.519c-41.3203 0 -85.1504 11.7002 -120.721 41.8506c-25.7002 21.8203 -44.71 53.75 -53.3604 91.1396c-3.29004 14.2002 -4.32031 30.0098 -5.2207 45.1494c-2.59961 44.7598 -1.64941 330.67 -0.749023 373.91h130.47v-374.579
c0.379883 -38.9199 7.92969 -46.5703 18.5195 -55.5303c10.5596 -8.99023 28 -14.9199 47.2598 -14.9199h282.04c19.25 0 36.6904 5.9502 47.2705 14.9199c10.5801 8.95996 18.0303 16.6104 18.5 55.5303c0.0498047 6.0498 1.64941 374.58 1.64941 374.58h129.74v-551.82
h-129.77v37.8701c-34.6904 -27.3701 -76.54 -38.1006 -116.11 -38.1006z" />
    <glyph glyph-name="u" unicode="&#xfa;" horiz-adv-x="767" 
d="M472.509 0h-249.519c-41.3203 0 -85.1504 11.7002 -120.721 41.8506c-25.7002 21.8203 -44.71 53.75 -53.3604 91.1396c-3.29004 14.2002 -4.32031 30.0098 -5.2207 45.1494c-2.59961 44.7598 -1.64941 330.67 -0.749023 373.91h130.47v-374.579
c0.379883 -38.9199 7.92969 -46.5703 18.5195 -55.5303c10.5596 -8.99023 28 -14.9199 47.2598 -14.9199h282.04c19.25 0 36.6904 5.9502 47.2705 14.9199c10.5801 8.95996 18.0303 16.6104 18.5 55.5303c0.0498047 6.0498 1.64941 374.58 1.64941 374.58h129.74v-551.82
h-129.77v37.8701c-34.6904 -27.3701 -76.54 -38.1006 -116.11 -38.1006z" />
    <glyph glyph-name="u" unicode="&#xf9;" horiz-adv-x="767" 
d="M472.509 0h-249.519c-41.3203 0 -85.1504 11.7002 -120.721 41.8506c-25.7002 21.8203 -44.71 53.75 -53.3604 91.1396c-3.29004 14.2002 -4.32031 30.0098 -5.2207 45.1494c-2.59961 44.7598 -1.64941 330.67 -0.749023 373.91h130.47v-374.579
c0.379883 -38.9199 7.92969 -46.5703 18.5195 -55.5303c10.5596 -8.99023 28 -14.9199 47.2598 -14.9199h282.04c19.25 0 36.6904 5.9502 47.2705 14.9199c10.5801 8.95996 18.0303 16.6104 18.5 55.5303c0.0498047 6.0498 1.64941 374.58 1.64941 374.58h129.74v-551.82
h-129.77v37.8701c-34.6904 -27.3701 -76.54 -38.1006 -116.11 -38.1006z" />
    <glyph glyph-name="v" unicode="v" horiz-adv-x="805" 
d="M-3 551.812h152.021l101.219 -165.787l71.4678 -117.02l80.4521 -131.77l178.337 292.04l71.4512 117.02l3.34961 5.5166h152.021l-90.7852 -148.67l-71.4512 -117.02l-174.704 -286.123h-136.437l-76.835 125.853l-71.4678 117.02z" />
    <glyph glyph-name="w" unicode="w" horiz-adv-x="1169" 
d="M-1 551.812h143.536l202.288 -415.976l186.471 415.976h105.886l186.471 -415.976l202.271 415.976h143.587l-274.822 -551.812h-145.137l-165.287 370.475l-165.287 -370.475h-145.137z" />
    <glyph glyph-name="x" unicode="x" horiz-adv-x="780" 
d="M-1 551.812h182.921l207.604 -195.588l207.621 195.588h182.921l-302.323 -278.14l297.54 -273.656h-182.904l-202.854 191.121l-202.838 -191.121h-182.904l297.54 273.656z" />
    <glyph glyph-name="y" unicode="y" horiz-adv-x="801" 
d="M42 552.046h129.436v-386.892c0 -24.6504 12.7666 -58.1182 67.3682 -58.1182h318.573c54.6016 0 65.7852 33.4512 65.7852 58.1182v386.892h129.753v-611.047c-0.116211 -111.469 -98.6182 -165.153 -179.07 -165.153h-341.424
c-80.4521 0 -179.071 53.6846 -179.071 165.153h129.503c0 -24.6504 11.167 -58.1182 65.7686 -58.1182h309.007c54.6182 0 66.0518 33.4678 65.585 45.8018v108.152c-33.9004 -24.7002 -76.2012 -36.834 -114.436 -36.834h-286.14
c-80.4521 0 -180.638 53.6846 -180.638 165.153v386.892z" />
    <glyph glyph-name="y" unicode="&#xff;" horiz-adv-x="801" 
d="M42 552.046h129.436v-386.892c0 -24.6504 12.7666 -58.1182 67.3682 -58.1182h318.573c54.6016 0 65.7852 33.4512 65.7852 58.1182v386.892h129.753v-611.047c-0.116211 -111.469 -98.6182 -165.153 -179.07 -165.153h-341.424
c-80.4521 0 -179.071 53.6846 -179.071 165.153h129.503c0 -24.6504 11.167 -58.1182 65.7686 -58.1182h309.007c54.6182 0 66.0518 33.4678 65.585 45.8018v108.152c-33.9004 -24.7002 -76.2012 -36.834 -114.436 -36.834h-286.14
c-80.4521 0 -180.638 53.6846 -180.638 165.153v386.892z" />
    <glyph glyph-name="y" unicode="&#xfd;" horiz-adv-x="801" 
d="M42 552.046h129.436v-386.892c0 -24.6504 12.7666 -58.1182 67.3682 -58.1182h318.573c54.6016 0 65.7852 33.4512 65.7852 58.1182v386.892h129.753v-611.047c-0.116211 -111.469 -98.6182 -165.153 -179.07 -165.153h-341.424
c-80.4521 0 -179.071 53.6846 -179.071 165.153h129.503c0 -24.6504 11.167 -58.1182 65.7686 -58.1182h309.007c54.6182 0 66.0518 33.4678 65.585 45.8018v108.152c-33.9004 -24.7002 -76.2012 -36.834 -114.436 -36.834h-286.14
c-80.4521 0 -180.638 53.6846 -180.638 165.153v386.892z" />
    <glyph glyph-name="z" unicode="z" horiz-adv-x="720" 
d="M38.4336 551.812h658.598v-106.136l-465.127 -338.607h458.693v-107.069h-671.598v105.136l471.577 339.607h-452.144v107.069z" />
    <glyph glyph-name="nonbreakingspace" unicode="&#xa0;" horiz-adv-x="402" 
 />
    <glyph glyph-name="softhyphen" unicode="&#xad;" horiz-adv-x="0" 
 />
    <glyph glyph-name="Eacute" unicode="&#xc9;" horiz-adv-x="913" 
d="M559.744 920.07l46.0498 -89.2188l-254.938 -100.586l-20.75 40.2178zM49.998 658.848l835.901 0.00195312v-107.036h-706.815v-167.787h663.864v-107.069h-663.864v-169.921h706.815v-107.036h-835.901v658.848z" />
    <glyph glyph-name="Ecircumflex" unicode="&#xca;" horiz-adv-x="913" 
d="M438.592 934.07h58.7363l140.47 -217.821h-88.9023l-80.9521 127.003l-80.9521 -127.003h-88.8857zM50.002 658.848l835.918 0.00195312v-107.036h-706.799v-167.787h663.848v-107.069h-663.848v-169.921h706.799v-107.036h-835.918v658.848z" />
    <glyph glyph-name="Edieresis" unicode="&#xcb;" horiz-adv-x="913" 
d="M307.172 878.686h104.103v-107.069h-104.103v107.069zM524.627 878.686h104.103v-107.069h-104.103v107.069zM50 658.848l835.885 0.00195312v-107.036h-706.799v-167.787h663.864v-107.069h-663.864v-169.921h706.799v-107.036h-835.885v658.848z" />
    <glyph glyph-name="Ntilde" unicode="&#xd1;" horiz-adv-x="968" 
d="M611.062 883.869l95.7021 -25.6162c-22.167 -82.335 -105.586 -102.519 -165.021 -86.585l-92.2852 24.7334c-40.3506 10.7998 -55.2344 -11.7178 -60.1182 -29.9346l-95.6855 25.6338c0 82.4014 105.586 102.519 165.004 86.585l92.2852 -24.7344
c40.3506 -10.8164 55.251 11.7012 60.1182 29.918zM50 658.849h113.853l624.363 -482.61v482.61h129.753v-658.864h-113.902l-624.33 482.61v-482.594h-129.736v658.848z" />
    <glyph glyph-name="K.alt1" unicode="&#xf004;" horiz-adv-x="933" 
d="M50 658.848l129.736 0.00292969v-279.623h358.808c54.6016 0 114.619 12.0166 135.553 58.1172l100.552 221.505h145.72l-100.552 -221.505c-21.8008 -46.8848 -45.418 -82.5693 -74.2354 -108.554c32.1006 -26.3672 57.668 -63.9346 80.7354 -114.735l100.552 -221.488
h-145.72l-100.552 221.505c-20.9336 46.1006 -80.9512 58.1172 -135.553 58.1172h-365.291v-272.189h-129.753v658.848z" />
    <glyph glyph-name="x.alt1" unicode="&#xf01b;" horiz-adv-x="752" 
d="M11.4668 551.812l155.47 0.000976562l105.452 -145.27c29.1172 -39.0508 53.251 -70.1016 106.119 -71.0186c48.1846 0.833008 71.4854 31.9834 100.603 71.0176l105.452 145.27h155.453l-108.702 -145.27c-42.334 -58.3184 -68.4844 -102.652 -112.902 -130.637
c44.418 -27.9844 73.8184 -72.3184 116.152 -130.637l111.936 -145.27h-155.453l-111.936 145.27c-29.1172 39.0342 -47.7344 66.8516 -100.603 67.7686c-52.8682 -0.916992 -77.002 -28.7344 -106.119 -67.7686l-111.936 -145.27h-155.453l111.919 145.27
c42.334 58.3184 74.1514 102.652 120.719 130.637c-46.584 27.9844 -75.1348 72.3184 -117.469 130.637z" />
    <glyph glyph-name="y.alt1" unicode="&#xf01c;" horiz-adv-x="800" 
d="M1 552.046h145.737l165.42 -386.925c30.6836 -66.1348 104.368 -58.1182 170.603 -58.1182l167.82 445.043h145.72l-230.288 -610.73c-45.9678 -121.869 -118.119 -165.153 -250.438 -165.153h-189.071v107.036h158.22c54.6182 0 119.953 9.9502 135.554 58.1182
l22.1172 58.6514c-149.554 0 -207.488 4.9834 -275.973 165.153z" />
    <glyph glyph-name="A.alt1" unicode="&#xf041;" horiz-adv-x="944" 
d="M225.054 658.848l493.877 -0.0166016c80.4355 0 179.055 -53.6846 179.055 -165.153v-493.678h-129.486v223.255h-593.013v-223.255h-129.486v493.694c0.116211 111.469 98.6182 165.153 179.054 165.153zM241.27 551.812
c-54.6182 0 -65.7842 -33.4678 -65.7842 -58.1182v-163.354h593.013v163.354c-0.483398 24.6504 -11.167 58.1182 -65.7852 58.1182h-461.443z" />
    </font>
</defs>
</svg>
